<svg width="167" height="44" viewBox="0 0 167 44" fill="none" xmlns="http://www.w3.org/2000/svg">
<path d="M56.4037 30V14.7885H61.2323V17.976C61.4848 16.882 62.0002 16.0404 62.7787 15.4513C63.5782 14.8411 64.4618 14.5361 65.4296 14.5361C65.9346 14.5361 66.3554 14.5781 66.692 14.6623V19.1437C66.1239 19.0806 65.64 19.049 65.2403 19.049C62.5683 19.049 61.2323 20.7427 61.2323 24.13V30H56.4037ZM80.6813 28.2011C79.1665 29.716 77.1256 30.4734 74.5588 30.4734C71.992 30.4734 69.9407 29.716 68.4048 28.2011C66.8689 26.6863 66.101 24.7507 66.101 22.3943C66.101 20.0379 66.8689 18.1128 68.4048 16.619C69.9407 15.1041 71.992 14.3467 74.5588 14.3467C77.1256 14.3467 79.1665 15.1041 80.6813 16.619C82.2172 18.1128 82.9851 20.0379 82.9851 22.3943C82.9851 24.7507 82.2172 26.6863 80.6813 28.2011ZM74.5588 26.3707C75.6739 26.3707 76.5576 26.0025 77.2098 25.2661C77.862 24.5298 78.1881 23.5725 78.1881 22.3943C78.1881 21.2161 77.862 20.2588 77.2098 19.5224C76.5576 18.786 75.6739 18.4178 74.5588 18.4178C73.4227 18.4178 72.5285 18.786 71.8763 19.5224C71.2451 20.2588 70.9295 21.2161 70.9295 22.3943C70.9295 23.5725 71.2451 24.5298 71.8763 25.2661C72.5285 26.0025 73.4227 26.3707 74.5588 26.3707ZM91.3344 30.4734C88.8518 30.4734 86.8741 29.737 85.4013 28.2643C83.9286 26.7705 83.1922 24.8138 83.1922 22.3943C83.1922 19.9747 83.9286 18.0286 85.4013 16.5558C86.8741 15.0831 88.8518 14.3467 91.3344 14.3467C93.5857 14.3467 95.4161 14.9043 96.8257 16.0193C98.2354 17.1344 99.0349 18.6493 99.2242 20.5638H94.3957C94.038 19.1332 93.0281 18.4178 91.366 18.4178C90.314 18.4178 89.4935 18.765 88.9044 19.4593C88.3153 20.1536 88.0207 21.1319 88.0207 22.3943C88.0207 23.6566 88.3153 24.635 88.9044 25.3293C89.4935 26.0236 90.314 26.3707 91.366 26.3707C93.0281 26.3707 94.038 25.6974 94.3957 24.3509H99.2242C99.0349 26.2234 98.2354 27.7172 96.8257 28.8323C95.4161 29.9264 93.5857 30.4734 91.3344 30.4734ZM115.654 30H109.753L104.924 23.4042V30H100.096V7.90866H104.924V21.1319L109.879 14.7885H115.56L109.5 21.984L115.654 30ZM129.68 21.6053C129.68 22.2365 129.638 22.9413 129.554 23.7197H118.319C118.361 24.7086 118.698 25.4765 119.329 26.0236C119.96 26.5706 120.812 26.8441 121.885 26.8441C123.358 26.8441 124.305 26.3707 124.726 25.4239H129.46C129.228 26.9177 128.408 28.138 126.998 29.0848C125.609 30.0105 123.905 30.4734 121.885 30.4734C119.297 30.4734 117.257 29.758 115.763 28.3274C114.269 26.8967 113.522 24.919 113.522 22.3943C113.522 19.9116 114.269 17.955 115.763 16.5243C117.257 15.0726 119.245 14.3467 121.728 14.3467C124.084 14.3467 125.999 15.02 127.471 16.3665C128.944 17.713 129.68 19.4593 129.68 21.6053ZM118.319 20.7216H124.915C124.894 19.7117 124.61 18.9333 124.063 18.3863C123.516 17.8392 122.727 17.5657 121.696 17.5657C120.665 17.5657 119.845 17.8603 119.234 18.4494C118.645 19.0174 118.34 19.7749 118.319 20.7216ZM138.472 26.2445C139.145 26.2445 139.703 26.2129 140.144 26.1498V30C139.219 30.1683 138.146 30.2525 136.925 30.2525C136.378 30.2525 135.895 30.2209 135.474 30.1578C135.053 30.0947 134.58 29.9579 134.054 29.7475C133.528 29.5161 133.096 29.211 132.76 28.8323C132.423 28.4536 132.128 27.9066 131.876 27.1912C131.645 26.4759 131.529 25.6343 131.529 24.6665V18.6072H129.13V14.7885H131.529V10.2756H136.357V14.7885H139.797V18.6072H136.357V23.6566C136.357 24.6876 136.536 25.3819 136.894 25.7395C137.252 26.0762 137.778 26.2445 138.472 26.2445ZM159.84 14.7885H164.637V36.3118H159.808V28.6745H159.84V27.854C159.419 28.6114 158.767 29.2321 157.883 29.716C157.021 30.1788 156.063 30.4103 155.011 30.4103C152.802 30.4103 151.056 29.6634 149.772 28.1696C148.489 26.6758 147.847 24.7507 147.847 22.3943C147.847 20.0799 148.51 18.1654 149.836 16.6505C151.161 15.1357 152.907 14.3783 155.074 14.3783C156.147 14.3783 157.105 14.6097 157.946 15.0726C158.788 15.5354 159.419 16.1666 159.84 16.9661V14.7885ZM156.4 26.4023C157.557 26.4023 158.451 26.0236 159.082 25.2661C159.714 24.5087 160.029 23.5514 160.029 22.3943C160.029 21.2581 159.714 20.3114 159.082 19.554C158.451 18.7965 157.557 18.4178 156.4 18.4178C155.306 18.4178 154.422 18.786 153.749 19.5224C153.097 20.2588 152.771 21.2161 152.771 22.3943C152.771 23.5725 153.097 24.5403 153.749 25.2977C154.422 26.0341 155.306 26.4023 156.4 26.4023Z" fill="#0D114F"/>
<path d="M146.158 29.4004C145.569 30.0105 144.833 30.3156 143.949 30.3156C143.065 30.3156 142.319 30.0105 141.708 29.4004C141.119 28.7902 140.825 28.0644 140.825 27.2228C140.825 26.3602 141.119 25.6343 141.708 25.0452C142.319 24.4351 143.065 24.13 143.949 24.13C144.833 24.13 145.569 24.4351 146.158 25.0452C146.768 25.6343 147.073 26.3602 147.073 27.2228C147.073 28.0644 146.768 28.7902 146.158 29.4004Z" fill="url(#paint0_linear)"/>
<rect width="43.832" height="43.832" rx="7.88976" fill="url(#paint1_linear)"/>
<g filter="url(#filter0_di)">
<path d="M33.2581 32.413H29.3488C29.1853 32.413 29.0509 32.2854 29.0364 32.1225C29.0318 32.071 29.0269 32.0211 29.0215 31.9726C28.7975 29.9298 26.5984 28.1752 24.5584 28.4238C23.0693 28.6052 21.8352 29.7293 20.3446 29.8976C19.3394 30.011 18.4622 29.9594 17.4597 29.7629C16.581 29.5907 15.7328 29.2756 14.9521 28.8372C13.1133 27.8044 12.1261 26.7409 11.2108 25.1387C10.6811 24.2113 10.3031 23.1958 10.1656 22.1367C10.0518 21.2602 10.059 20.4879 10.1545 19.6373C10.3005 18.3379 10.7169 17.0731 11.3965 15.956C12.3505 14.3877 13.3817 13.4125 15.0617 12.4997C15.7733 12.1131 16.5388 11.8304 17.3297 11.6567C19.3325 11.2169 20.6291 11.3458 22.576 11.956C23.6592 12.2955 24.8357 13.0229 25.8363 13.9722C28.0244 16.0481 28.1913 19.3058 28.2466 22.3215C28.2517 22.601 27.9961 22.8124 27.721 22.7627C26.3698 22.5183 25.3982 22.4987 24.0704 22.7098C23.7144 22.7664 23.4216 22.3979 23.5176 22.0505C23.5593 21.8998 23.5919 21.7518 23.6164 21.6058C24.0089 19.2711 22.4112 16.606 20.0549 16.3763C18.7181 16.246 17.3944 16.7918 16.4139 17.8864C15.8287 18.4381 15.5051 19.3034 15.403 20.2261C15.1384 22.6172 17.0942 24.9295 19.4972 25.0438C19.9557 25.0656 20.3983 24.999 20.8507 24.8457C22.2761 24.3625 23.6655 23.6404 25.1663 23.7534C29.6813 24.0934 32.8524 26.1288 33.6868 31.9218C33.7242 32.1814 33.5204 32.413 33.2581 32.413Z" fill="#FAFAFA"/>
</g>
<defs>
<filter id="filter0_di" x="8.44918" y="11.3963" width="26.8744" height="24.2814" filterUnits="userSpaceOnUse" color-interpolation-filters="sRGB">
<feFlood flood-opacity="0" result="BackgroundImageFix"/>
<feColorMatrix in="SourceAlpha" type="matrix" values="0 0 0 0 0 0 0 0 0 0 0 0 0 0 0 0 0 0 127 0"/>
<feOffset dy="1.63237"/>
<feGaussianBlur stdDeviation="0.816183"/>
<feColorMatrix type="matrix" values="0 0 0 0 0 0 0 0 0 0 0 0 0 0 0 0 0 0 0.07 0"/>
<feBlend mode="normal" in2="BackgroundImageFix" result="effect1_dropShadow"/>
<feBlend mode="normal" in="SourceGraphic" in2="effect1_dropShadow" result="shape"/>
<feColorMatrix in="SourceAlpha" type="matrix" values="0 0 0 0 0 0 0 0 0 0 0 0 0 0 0 0 0 0 127 0" result="hardAlpha"/>
<feOffset dy="1.63237"/>
<feGaussianBlur stdDeviation="1.02023"/>
<feComposite in2="hardAlpha" operator="arithmetic" k2="-1" k3="1"/>
<feColorMatrix type="matrix" values="0 0 0 0 0.219608 0 0 0 0 0.533333 0 0 0 0 1 0 0 0 0.13 0"/>
<feBlend mode="normal" in2="shape" result="effect2_innerShadow"/>
</filter>
<linearGradient id="paint0_linear" x1="189.169" y1="-59.0291" x2="177.57" y2="54.1337" gradientUnits="userSpaceOnUse">
<stop stop-color="#5498FF"/>
<stop offset="0.515625" stop-color="#428EFF"/>
<stop offset="1" stop-color="#297FFF"/>
</linearGradient>
<linearGradient id="paint1_linear" x1="52.463" y1="-66.3077" x2="19.6129" y2="48.5381" gradientUnits="userSpaceOnUse">
<stop stop-color="#5498FF"/>
<stop offset="0.515625" stop-color="#428EFF"/>
<stop offset="1" stop-color="#297FFF"/>
</linearGradient>
</defs>
</svg>
